<svg xmlns="http://www.w3.org/2000/svg" width="256" height="256" viewBox="0 0 32 32" data-pixel-grid="32" shape-rendering="crispEdges">
<!-- Original pixel artwork, MIT port-code licence; no extracted game artwork. -->
<path fill="#52edee" d="M 7 17 L 10 17 L 10 18 L 7 18 Z M 20 17 L 23 17 L 23 18 L 20 18 Z M 7 18 L 10 18 L 10 19 L 7 19 Z M 20 18 L 23 18 L 23 19 L 20 19 Z M 7 19 L 10 19 L 10 20 L 7 20 Z M 20 19 L 23 19 L 23 20 L 20 20 Z"/>
<path fill="#a3a8b4" d="M 12 11 L 14 11 L 14 12 L 12 12 Z M 18 11 L 20 11 L 20 12 L 18 12 Z M 12 12 L 14 12 L 14 13 L 12 13 Z M 18 12 L 20 12 L 20 13 L 18 13 Z M 4 13 L 28 13 L 28 14 L 4 14 Z M 4 14 L 28 14 L 28 15 L 4 15 Z M 4 15 L 7 15 L 7 16 L 4 16 Z M 12 15 L 20 15 L 20 16 L 12 16 Z M 25 15 L 28 15 L 28 16 L 25 16 Z M 3 16 L 6 16 L 6 17 L 3 17 Z M 13 16 L 19 16 L 19 17 L 13 17 Z M 26 16 L 29 16 L 29 17 L 26 17 Z M 3 17 L 6 17 L 6 18 L 3 18 Z M 13 17 L 19 17 L 19 18 L 13 18 Z M 26 17 L 29 17 L 29 18 L 26 18 Z M 3 18 L 6 18 L 6 19 L 3 19 Z M 13 18 L 19 18 L 19 19 L 13 19 Z M 26 18 L 29 18 L 29 19 L 26 19 Z M 3 19 L 6 19 L 6 20 L 3 20 Z M 13 19 L 19 19 L 19 20 L 13 20 Z M 26 19 L 29 19 L 29 20 L 26 20 Z M 3 20 L 6 20 L 6 21 L 3 21 Z M 13 20 L 19 20 L 19 21 L 13 21 Z M 26 20 L 29 20 L 29 21 L 26 21 Z M 3 21 L 7 21 L 7 22 L 3 22 Z M 12 21 L 20 21 L 20 22 L 12 22 Z M 25 21 L 29 21 L 29 22 L 25 22 Z M 3 22 L 4 22 L 4 23 L 3 23 Z M 9 22 L 12 22 L 12 23 L 9 23 Z M 20 22 L 23 22 L 23 23 L 20 23 Z M 28 22 L 29 22 L 29 23 L 28 23 Z M 4 23 L 12 23 L 12 24 L 4 24 Z M 20 23 L 28 23 L 28 24 L 20 24 Z M 8 24 L 12 24 L 12 25 L 8 25 Z M 20 24 L 24 24 L 24 25 L 20 25 Z"/>
<path fill="#cbd0db" d="M 5 11 L 12 11 L 12 12 L 5 12 Z M 14 11 L 18 11 L 18 12 L 14 12 Z M 20 11 L 22 11 L 22 12 L 20 12 Z M 5 12 L 12 12 L 12 13 L 5 13 Z M 14 12 L 18 12 L 18 13 L 14 13 Z M 20 12 L 27 12 L 27 13 L 20 13 Z M 6 25 L 12 25 L 12 26 L 6 26 Z M 20 25 L 26 25 L 26 26 L 20 26 Z M 6 26 L 13 26 L 13 27 L 6 27 Z M 19 26 L 26 26 L 26 27 L 19 27 Z M 9 27 L 23 27 L 23 28 L 9 28 Z M 9 28 L 23 28 L 23 29 L 9 29 Z"/>
<path fill="#101321" d="M 4 2 L 7 2 L 7 3 L 4 3 Z M 25 2 L 28 2 L 28 3 L 25 3 Z M 4 3 L 7 3 L 7 4 L 4 4 Z M 25 3 L 28 3 L 28 4 L 25 4 Z M 3 4 L 5 4 L 5 5 L 3 5 Z M 7 4 L 9 4 L 9 5 L 7 5 Z M 23 4 L 25 4 L 25 5 L 23 5 Z M 27 4 L 29 4 L 29 5 L 27 5 Z M 3 5 L 5 5 L 5 6 L 3 6 Z M 7 5 L 9 5 L 9 6 L 7 6 Z M 23 5 L 25 5 L 25 6 L 23 6 Z M 27 5 L 29 5 L 29 6 L 27 6 Z M 3 6 L 4 6 L 4 7 L 3 7 Z M 7 6 L 9 6 L 9 7 L 7 7 Z M 23 6 L 25 6 L 25 7 L 23 7 Z M 28 6 L 29 6 L 29 7 L 28 7 Z M 3 7 L 4 7 L 4 8 L 3 8 Z M 7 7 L 12 7 L 12 8 L 7 8 Z M 20 7 L 25 7 L 25 8 L 20 8 Z M 28 7 L 29 7 L 29 8 L 28 8 Z M 3 8 L 4 8 L 4 9 L 3 9 Z M 7 8 L 12 8 L 12 9 L 7 9 Z M 20 8 L 25 8 L 25 9 L 20 9 Z M 28 8 L 29 8 L 29 9 L 28 9 Z M 3 9 L 5 9 L 5 10 L 3 10 Z M 10 9 L 12 9 L 12 10 L 10 10 Z M 20 9 L 22 9 L 22 10 L 20 10 Z M 27 9 L 29 9 L 29 10 L 27 10 Z M 4 10 L 5 10 L 5 11 L 4 11 Z M 10 10 L 22 10 L 22 11 L 10 11 Z M 27 10 L 28 10 L 28 11 L 27 11 Z M 4 11 L 5 11 L 5 12 L 4 12 Z M 27 11 L 28 11 L 28 12 L 27 12 Z M 3 12 L 5 12 L 5 13 L 3 13 Z M 27 12 L 29 12 L 29 13 L 27 13 Z M 3 13 L 4 13 L 4 14 L 3 14 Z M 28 13 L 29 13 L 29 14 L 28 14 Z M 3 14 L 4 14 L 4 15 L 3 15 Z M 28 14 L 29 14 L 29 15 L 28 15 Z M 2 15 L 4 15 L 4 16 L 2 16 Z M 7 15 L 12 15 L 12 16 L 7 16 Z M 20 15 L 25 15 L 25 16 L 20 16 Z M 28 15 L 30 15 L 30 16 L 28 16 Z M 2 16 L 3 16 L 3 17 L 2 17 Z M 6 16 L 7 16 L 7 17 L 6 17 Z M 9 16 L 13 16 L 13 17 L 9 17 Z M 19 16 L 20 16 L 20 17 L 19 17 Z M 22 16 L 26 16 L 26 17 L 22 17 Z M 29 16 L 30 16 L 30 17 L 29 17 Z M 2 17 L 3 17 L 3 18 L 2 18 Z M 6 17 L 7 17 L 7 18 L 6 18 Z M 10 17 L 13 17 L 13 18 L 10 18 Z M 19 17 L 20 17 L 20 18 L 19 18 Z M 23 17 L 26 17 L 26 18 L 23 18 Z M 29 17 L 30 17 L 30 18 L 29 18 Z M 2 18 L 3 18 L 3 19 L 2 19 Z M 6 18 L 7 18 L 7 19 L 6 19 Z M 10 18 L 13 18 L 13 19 L 10 19 Z M 19 18 L 20 18 L 20 19 L 19 19 Z M 23 18 L 26 18 L 26 19 L 23 19 Z M 29 18 L 30 18 L 30 19 L 29 19 Z M 2 19 L 3 19 L 3 20 L 2 20 Z M 6 19 L 7 19 L 7 20 L 6 20 Z M 10 19 L 13 19 L 13 20 L 10 20 Z M 19 19 L 20 19 L 20 20 L 19 20 Z M 23 19 L 26 19 L 26 20 L 23 20 Z M 29 19 L 30 19 L 30 20 L 29 20 Z M 2 20 L 3 20 L 3 21 L 2 21 Z M 6 20 L 13 20 L 13 21 L 6 21 Z M 19 20 L 26 20 L 26 21 L 19 21 Z M 29 20 L 30 20 L 30 21 L 29 21 Z M 2 21 L 3 21 L 3 22 L 2 22 Z M 7 21 L 12 21 L 12 22 L 7 22 Z M 20 21 L 25 21 L 25 22 L 20 22 Z M 29 21 L 30 21 L 30 22 L 29 22 Z M 2 22 L 3 22 L 3 23 L 2 23 Z M 29 22 L 30 22 L 30 23 L 29 23 Z M 3 23 L 4 23 L 4 24 L 3 24 Z M 28 23 L 29 23 L 29 24 L 28 24 Z M 15 24 L 17 24 L 17 25 L 15 25 Z M 3 25 L 6 25 L 6 26 L 3 26 Z M 12 25 L 14 25 L 14 26 L 12 26 Z M 15 25 L 17 25 L 17 26 L 15 26 Z M 18 25 L 20 25 L 20 26 L 18 26 Z M 26 25 L 29 25 L 29 26 L 26 26 Z M 5 26 L 6 26 L 6 27 L 5 27 Z M 13 26 L 19 26 L 19 27 L 13 27 Z M 26 26 L 27 26 L 27 27 L 26 27 Z M 5 27 L 9 27 L 9 28 L 5 28 Z M 23 27 L 27 27 L 27 28 L 23 28 Z M 8 28 L 9 28 L 9 29 L 8 29 Z M 23 28 L 24 28 L 24 29 L 23 29 Z M 8 29 L 24 29 L 24 30 L 8 30 Z"/>
<path fill="#ff3e9f" d="M 4 6 L 7 6 L 7 7 L 4 7 Z M 25 6 L 28 6 L 28 7 L 25 7 Z M 4 7 L 7 7 L 7 8 L 4 8 Z M 25 7 L 28 7 L 28 8 L 25 8 Z M 4 8 L 7 8 L 7 9 L 4 9 Z M 25 8 L 28 8 L 28 9 L 25 9 Z M 5 9 L 10 9 L 10 10 L 5 10 Z M 22 9 L 27 9 L 27 10 L 22 10 Z M 5 10 L 10 10 L 10 11 L 5 11 Z M 22 10 L 27 10 L 27 11 L 22 11 Z M 22 11 L 27 11 L 27 12 L 22 12 Z M 14 22 L 18 22 L 18 23 L 14 23 Z M 15 23 L 17 23 L 17 24 L 15 24 Z"/>
<path fill="#707785" d="M 4 22 L 9 22 L 9 23 L 4 23 Z M 23 22 L 28 22 L 28 23 L 23 23 Z M 3 24 L 8 24 L 8 25 L 3 25 Z M 24 24 L 29 24 L 29 25 L 24 25 Z"/>
<path fill="#e9edf5" d="M 5 4 L 7 4 L 7 5 L 5 5 Z M 25 4 L 27 4 L 27 5 L 25 5 Z M 5 5 L 7 5 L 7 6 L 5 6 Z M 25 5 L 27 5 L 27 6 L 25 6 Z M 7 16 L 9 16 L 9 17 L 7 17 Z M 20 16 L 22 16 L 22 17 L 20 17 Z M 12 22 L 14 22 L 14 23 L 12 23 Z M 18 22 L 20 22 L 20 23 L 18 23 Z M 12 23 L 15 23 L 15 24 L 12 24 Z M 17 23 L 20 23 L 20 24 L 17 24 Z M 12 24 L 15 24 L 15 25 L 12 25 Z M 17 24 L 20 24 L 20 25 L 17 25 Z M 14 25 L 15 25 L 15 26 L 14 26 Z M 17 25 L 18 25 L 18 26 L 17 26 Z"/>
</svg>
